<?xml version="1.0" encoding="utf-8"?>
<!-- Generator: Adobe Illustrator 26.0.1, SVG Export Plug-In . SVG Version: 6.00 Build 0)  -->
<svg version="1.1" id="Baggrund" xmlns="http://www.w3.org/2000/svg" xmlns:xlink="http://www.w3.org/1999/xlink" x="0px" y="0px"
	 viewBox="0 0 563.33 276.24" style="enable-background:new 0 0 563.33 276.24;" xml:space="preserve">
<style type="text/css">
	.st0{display:none;opacity:0.3;}
	.st1{display:inline;}
	.st2{fill:none;stroke:url(#SVGID_1_);stroke-linecap:round;stroke-linejoin:round;stroke-miterlimit:10;}
	
		.st3{fill:none;stroke:url(#SVGID_00000078739267198692614880000000598206943351540120_);stroke-linecap:round;stroke-linejoin:round;stroke-miterlimit:10;}
	
		.st4{fill:none;stroke:url(#SVGID_00000152958685294649242960000004364314432672112537_);stroke-linecap:round;stroke-linejoin:round;stroke-miterlimit:10;}
	
		.st5{fill:none;stroke:url(#SVGID_00000176005524989063591880000003951868254892091788_);stroke-linecap:round;stroke-linejoin:round;stroke-miterlimit:10;}
	.st6{display:none;}
	
		.st7{display:inline;fill:none;stroke:url(#SVGID_00000045603284586814538580000008694931577597852805_);stroke-linecap:round;stroke-linejoin:round;stroke-miterlimit:10;}
	
		.st8{display:inline;fill:none;stroke:url(#SVGID_00000023239825222461737420000003102755336880293268_);stroke-linecap:round;stroke-linejoin:round;stroke-miterlimit:10;}
	
		.st9{display:inline;fill:none;stroke:url(#SVGID_00000081629041150990674580000015505121232302094210_);stroke-linecap:round;stroke-linejoin:round;stroke-miterlimit:10;}
	
		.st10{display:inline;fill:none;stroke:url(#SVGID_00000119103582841965143030000002252612927665955993_);stroke-linecap:round;stroke-linejoin:round;stroke-miterlimit:10;}
	.st11{fill:none;stroke:#000000;stroke-miterlimit:10;}
</style>
<g class="st0">
	<g class="st1">
		
			<linearGradient id="SVGID_1_" gradientUnits="userSpaceOnUse" x1="-1207.1901" y1="-896.9902" x2="-1207.1901" y2="-614.1402" gradientTransform="matrix(1 0 0 -1 0 262.8498)">
			<stop  offset="0" style="stop-color:#D4599C"/>
			<stop  offset="1" style="stop-color:#444441"/>
		</linearGradient>
		<polyline class="st2" points="-1168.67,877.49 -1245.71,899.88 -1172.11,1039.46 -1245.71,1159.34 -1168.67,877.49 
			-1245.71,1005.19 -1172.11,1039.46 -1245.71,1062.3 		"/>
		
			<linearGradient id="SVGID_00000079454009514367072790000002391144864495478664_" gradientUnits="userSpaceOnUse" x1="-1164.86" y1="-691.9202" x2="-1164.86" y2="-613.7402" gradientTransform="matrix(1 0 0 -1 0 262.8498)">
			<stop  offset="0" style="stop-color:#D4599C"/>
			<stop  offset="1" style="stop-color:#444441"/>
		</linearGradient>
		
			<polyline style="fill:none;stroke:url(#SVGID_00000079454009514367072790000002391144864495478664_);stroke-linecap:round;stroke-linejoin:round;stroke-miterlimit:10;" points="
			-1083.88,954.27 -1106.26,877.22 -1245.84,950.83 -1245.71,877.09 -1083.88,954.27 -1211.58,877.22 -1245.84,950.83 		"/>
	</g>
	<g class="st1">
		
			<linearGradient id="SVGID_00000179630951095904527300000003565688063595367344_" gradientUnits="userSpaceOnUse" x1="-759.93" y1="-755.5402" x2="-681.42" y2="-755.5402" gradientTransform="matrix(1 0 0 -1 0 262.8498)">
			<stop  offset="0" style="stop-color:#D4599C"/>
			<stop  offset="1" style="stop-color:#444441"/>
		</linearGradient>
		
			<polyline style="fill:none;stroke:url(#SVGID_00000179630951095904527300000003565688063595367344_);stroke-linecap:round;stroke-linejoin:round;stroke-miterlimit:10;" points="
			-759.43,877.63 -682.38,900.01 -755.99,1039.59 -681.92,1159.15 -759.43,877.63 -682.38,1005.33 -755.99,1039.59 -682.38,1062.43 
					"/>
		
			<linearGradient id="SVGID_00000031924121295294802430000009874877947851226761_" gradientUnits="userSpaceOnUse" x1="-844.35" y1="-652.8301" x2="-681.38" y2="-652.8301" gradientTransform="matrix(1 0 0 -1 0 262.8498)">
			<stop  offset="0" style="stop-color:#D4599C"/>
			<stop  offset="1" style="stop-color:#444441"/>
		</linearGradient>
		
			<polyline style="fill:none;stroke:url(#SVGID_00000031924121295294802430000009874877947851226761_);stroke-linecap:round;stroke-linejoin:round;stroke-miterlimit:10;" points="
			-843.85,954.27 -821.46,877.22 -681.88,950.83 -681.92,877.09 -843.85,954.27 -716.15,877.22 -681.88,950.83 		"/>
	</g>
</g>
<g class="st6">
	
		<linearGradient id="SVGID_00000067216689001647926660000002925137204586098563_" gradientUnits="userSpaceOnUse" x1="1098.45" y1="123.6748" x2="1177.02" y2="123.6748" gradientTransform="matrix(1 0 0 -1 0 262.8498)">
		<stop  offset="0" style="stop-color:#0E3756"/>
		<stop  offset="1" style="stop-color:#444441"/>
	</linearGradient>
	
		<polyline style="display:inline;fill:none;stroke:url(#SVGID_00000067216689001647926660000002925137204586098563_);stroke-linecap:round;stroke-linejoin:round;stroke-miterlimit:10;" points="
		1098.95,0.85 1176,23.23 1102.39,162.81 1176.52,277.5 1098.95,0.85 1176,128.55 1102.39,162.81 1176,185.66 	"/>
	
		<linearGradient id="SVGID_00000163763790438450472070000006286848441307738780_" gradientUnits="userSpaceOnUse" x1="1013.12" y1="223.8798" x2="1176.96" y2="223.8798" gradientTransform="matrix(1 0 0 -1 0 262.8498)">
		<stop  offset="0" style="stop-color:#0E3756"/>
		<stop  offset="1" style="stop-color:#444441"/>
	</linearGradient>
	
		<polyline style="display:inline;fill:none;stroke:url(#SVGID_00000163763790438450472070000006286848441307738780_);stroke-linecap:round;stroke-linejoin:round;stroke-miterlimit:10;" points="
		1013.62,77.49 1036.01,0.45 1176.46,75.43 1176.46,0.45 1013.62,77.49 1141.32,0.45 1176.46,75.43 	"/>
</g>
<g class="st6">
	
		<linearGradient id="SVGID_00000119103282397756236970000010225573366138365862_" gradientUnits="userSpaceOnUse" x1="651.185" y1="-13.8902" x2="651.185" y2="262.9498" gradientTransform="matrix(1 0 0 -1 0 262.8498)">
		<stop  offset="0" style="stop-color:#0E3756"/>
		<stop  offset="1" style="stop-color:#444441"/>
	</linearGradient>
	
		<polyline style="display:inline;fill:none;stroke:url(#SVGID_00000119103282397756236970000010225573366138365862_);stroke-linecap:round;stroke-linejoin:round;stroke-miterlimit:10;" points="
		689.71,0.4 612.66,22.79 686.27,162.37 612.66,276.24 689.71,0.4 612.66,128.1 686.27,162.37 612.66,185.21 	"/>
	
		<linearGradient id="SVGID_00000183930356214011783250000006896897158166536121_" gradientUnits="userSpaceOnUse" x1="693.58" y1="185.1698" x2="693.58" y2="263.3498" gradientTransform="matrix(1 0 0 -1 0 262.8498)">
		<stop  offset="0" style="stop-color:#0E3756"/>
		<stop  offset="1" style="stop-color:#444441"/>
	</linearGradient>
	
		<polyline style="display:inline;fill:none;stroke:url(#SVGID_00000183930356214011783250000006896897158166536121_);stroke-linecap:round;stroke-linejoin:round;stroke-miterlimit:10;" points="
		774.5,77.18 752.12,0.14 612.66,75.99 612.66,0 774.5,77.18 646.8,0.14 612.66,75.99 	"/>
</g>
<g>
	<polyline class="st11" points="486.29,0.85 563.33,23.23 489.73,162.81 563.86,277.5 486.29,0.85 563.33,128.55 489.73,162.81 
		563.33,185.66 	"/>
	<polyline class="st11" points="400.96,77.49 423.34,0.45 563.8,75.43 563.8,0.45 400.96,77.49 528.66,0.45 563.8,75.43 	"/>
</g>
<g>
	<polyline class="st11" points="77.05,0.4 0,22.79 73.6,162.37 0,276.24 77.05,0.4 0,128.1 73.6,162.37 0,185.21 	"/>
	<polyline class="st11" points="161.84,77.18 139.45,0.14 0,75.99 0,0 161.84,77.18 34.14,0.14 0,75.99 	"/>
</g>
</svg>
